<?xml version="1.0" encoding="UTF-8"?>
<svg id="uuid-6af78e3e-9f16-4043-9e05-b7fe848a43a1" data-name="Calque 1" xmlns="http://www.w3.org/2000/svg" width="87.85mm" height="25.43mm" xmlns:xlink="http://www.w3.org/1999/xlink" viewBox="0 0 249.03 72.09">
  <defs>
    <style>
      .uuid-6014f540-075b-44c3-9e95-2928b60f54ab {
        fill: url(#uuid-168440da-8e36-4ef8-9eff-ca7bb416fc14);
      }

      .uuid-88b47a0b-dfde-49b0-b9f5-c5876d1e080e {
        fill: #fff;
      }
    </style>
    <linearGradient id="uuid-168440da-8e36-4ef8-9eff-ca7bb416fc14" data-name="Dégradé sans nom 43" x1="25.17" y1="36.69" x2="147.15" y2="36.69" gradientUnits="userSpaceOnUse">
      <stop offset="0" stop-color="#f0a"/>
      <stop offset="1" stop-color="#fff"/>
    </linearGradient>
  </defs>
  <g>
    <g>
      <path d="M34.71,26.92h5.66l-3.04,12.01c6.12-.68,12.84-4.18,12.84-9.16,0-3.08-3.72-4.22-9.96-4.22-4.26,0-9.54.65-15.05,1.52l1.63-4.26c4.07-.91,10.34-1.86,15.46-1.86,6.04,0,14.02,1.75,14.02,8.36,0,8.66-9.96,12.96-19.87,13.38l-2.47,9.73h-5.66l6.42-25.5Z"/>
      <path d="M53.74,42.69c0-5.78,6.53-10.37,13-10.37,4.94,0,8.78,3,8.78,7.26,0,5.74-6.46,10.34-12.96,10.34-4.98,0-8.82-2.89-8.82-7.22ZM69.54,39.77c0-1.94-1.14-3.8-3.53-3.8-3,0-6.31,3.12-6.31,6.57,0,1.94,1.14,3.8,3.53,3.8,3,0,6.31-3.12,6.31-6.57Z"/>
      <path d="M77.14,45.54c0-4.18,5.28-6.61,10.98-8.85-.5.04-1.22.08-2.05.08-1.21,0-2.7-.08-3.99-.34l-.53.83h-4.48c.61-.68,1.18-1.44,1.71-2.24-.19-.23-.34-.53-.42-.84-.57-2.54,2.93-4.79,4.03-5.59h3.99c-.61,1.41-1.37,2.89-2.2,4.37,1.06.19,3.15.3,5.47.3,2.13,0,4.22-.04,6.38-.27l-1.37,4.79c-6.65,2.47-11.17,5.43-11.17,6.73,0,.38.27.8,1.75.8,2.62,0,5.32-.65,8.32-1.82l-.84,3.72c-2.74,1.63-5.66,2.39-8.47,2.39-3.49,0-7.1-1.1-7.1-4.07Z"/>
      <path d="M98.53,41.82l1.33-4.98c-1.06-.08-2.05-.15-3-.27l.8-3.5c.99.08,2.05.15,3.16.19l2.01-7.64h5.74l-2.09,7.68,4.79-.15-.84,3.61c-1.63.08-3.31.15-4.94.19l-1.44,5.39c-.65,2.36-.12,2.66,1.21,2.66s3.38-.61,6.08-1.71l-.8,3.99c-2.62,1.48-5.74,2.51-7.6,2.51-6,0-5.17-5.13-4.41-7.98Z"/>
    </g>
    <g>
      <path class="uuid-6014f540-075b-44c3-9e95-2928b60f54ab" d="M34.71,26.92h5.66l-3.04,12.01c6.12-.68,12.84-4.18,12.84-9.16,0-3.08-3.72-4.22-9.96-4.22-4.26,0-9.54.65-15.05,1.52l1.63-4.26c4.07-.91,10.34-1.86,15.46-1.86,6.04,0,14.02,1.75,14.02,8.36,0,8.66-9.96,12.96-19.87,13.38l-2.47,9.73h-5.66l6.42-25.5Z"/>
      <path class="uuid-6014f540-075b-44c3-9e95-2928b60f54ab" d="M53.74,42.69c0-5.78,6.53-10.37,13-10.37,4.94,0,8.78,3,8.78,7.26,0,5.74-6.46,10.34-12.96,10.34-4.98,0-8.82-2.89-8.82-7.22ZM69.54,39.77c0-1.94-1.14-3.8-3.53-3.8-3,0-6.31,3.12-6.31,6.57,0,1.94,1.14,3.8,3.53,3.8,3,0,6.31-3.12,6.31-6.57Z"/>
      <path class="uuid-6014f540-075b-44c3-9e95-2928b60f54ab" d="M77.14,45.54c0-4.18,5.28-6.61,10.98-8.85-.5.04-1.22.08-2.05.08-1.21,0-2.7-.08-3.99-.34l-.53.83h-4.48c.61-.68,1.18-1.44,1.71-2.24-.19-.23-.34-.53-.42-.84-.57-2.54,2.93-4.79,4.03-5.59h3.99c-.61,1.41-1.37,2.89-2.2,4.37,1.06.19,3.15.3,5.47.3,2.13,0,4.22-.04,6.38-.27l-1.37,4.79c-6.65,2.47-11.17,5.43-11.17,6.73,0,.38.27.8,1.75.8,2.62,0,5.32-.65,8.32-1.82l-.84,3.72c-2.74,1.63-5.66,2.39-8.47,2.39-3.49,0-7.1-1.1-7.1-4.07Z"/>
      <path class="uuid-6014f540-075b-44c3-9e95-2928b60f54ab" d="M98.53,41.82l1.33-4.98c-1.06-.08-2.05-.15-3-.27l.8-3.5c.99.08,2.05.15,3.16.19l2.01-7.64h5.74l-2.09,7.68,4.79-.15-.84,3.61c-1.63.08-3.31.15-4.94.19l-1.44,5.39c-.65,2.36-.12,2.66,1.21,2.66s3.38-.61,6.08-1.71l-.8,3.99c-2.62,1.48-5.74,2.51-7.6,2.51-6,0-5.17-5.13-4.41-7.98Z"/>
    </g>
  </g>
  <g>
    <g>
      <path class="uuid-88b47a0b-dfde-49b0-b9f5-c5876d1e080e" d="M126.16,29.43v5.85h11.74v5.81h-11.74v9.12h-7.52v-26.6h20.86v5.81h-13.34Z"/>
      <path class="uuid-88b47a0b-dfde-49b0-b9f5-c5876d1e080e" d="M140.93,39.88c0-6.19,4.9-10.6,11.63-10.6s11.63,4.41,11.63,10.6-4.83,10.68-11.63,10.68-11.63-4.44-11.63-10.68ZM156.89,39.88c0-3.11-1.86-4.86-4.33-4.86s-4.33,1.75-4.33,4.86,1.9,4.94,4.33,4.94,4.33-1.79,4.33-4.94Z"/>
      <path class="uuid-88b47a0b-dfde-49b0-b9f5-c5876d1e080e" d="M167.53,22.02h7.22v28.19h-7.22v-28.19Z"/>
      <path class="uuid-88b47a0b-dfde-49b0-b9f5-c5876d1e080e" d="M178.62,23.5c0-2.16,1.75-3.84,4.41-3.84s4.41,1.56,4.41,3.72c0,2.28-1.75,3.95-4.41,3.95s-4.41-1.67-4.41-3.84ZM179.42,29.62h7.22v20.6h-7.22v-20.6Z"/>
      <path class="uuid-88b47a0b-dfde-49b0-b9f5-c5876d1e080e" d="M190.01,39.88c0-6.19,4.9-10.6,11.63-10.6s11.63,4.41,11.63,10.6-4.83,10.68-11.63,10.68-11.63-4.44-11.63-10.68ZM205.97,39.88c0-3.11-1.86-4.86-4.33-4.86s-4.33,1.75-4.33,4.86,1.9,4.94,4.33,4.94,4.33-1.79,4.33-4.94Z"/>
      <path class="uuid-88b47a0b-dfde-49b0-b9f5-c5876d1e080e" d="M215.2,46.27c0-2.58,1.9-4.26,4.33-4.26s4.33,1.67,4.33,4.26-1.86,4.29-4.33,4.29-4.33-1.78-4.33-4.29Z"/>
    </g>
    <g>
      <path d="M126.16,29.43v5.85h11.74v5.81h-11.74v9.12h-7.52v-26.6h20.86v5.81h-13.34Z"/>
      <path d="M140.93,39.88c0-6.19,4.9-10.6,11.63-10.6s11.63,4.41,11.63,10.6-4.83,10.68-11.63,10.68-11.63-4.44-11.63-10.68ZM156.89,39.88c0-3.11-1.86-4.86-4.33-4.86s-4.33,1.75-4.33,4.86,1.9,4.94,4.33,4.94,4.33-1.79,4.33-4.94Z"/>
      <path d="M167.53,22.02h7.22v28.19h-7.22v-28.19Z"/>
      <path d="M178.62,23.5c0-2.16,1.75-3.84,4.41-3.84s4.41,1.56,4.41,3.72c0,2.28-1.75,3.95-4.41,3.95s-4.41-1.67-4.41-3.84ZM179.42,29.62h7.22v20.6h-7.22v-20.6Z"/>
      <path d="M190.01,39.88c0-6.19,4.9-10.6,11.63-10.6s11.63,4.41,11.63,10.6-4.83,10.68-11.63,10.68-11.63-4.44-11.63-10.68ZM205.97,39.88c0-3.11-1.86-4.86-4.33-4.86s-4.33,1.75-4.33,4.86,1.9,4.94,4.33,4.94,4.33-1.79,4.33-4.94Z"/>
      <path d="M215.2,46.27c0-2.58,1.9-4.26,4.33-4.26s4.33,1.67,4.33,4.26-1.86,4.29-4.33,4.29-4.33-1.78-4.33-4.29Z"/>
    </g>
  </g>
</svg>